<?xml version="1.0" encoding="UTF-8" standalone="no"?>
<!-- Created with Inkscape (http://www.inkscape.org/) -->

<svg
   width="100"
   height="100"
   viewBox="0 0 26.458334 26.458333"
   version="1.1"
   id="svg1"
   inkscape:version="1.3.2 (091e20ef0f, 2023-11-25)"
   sodipodi:docname="bonus.svg"
   xmlns:inkscape="http://www.inkscape.org/namespaces/inkscape"
   xmlns:sodipodi="http://sodipodi.sourceforge.net/DTD/sodipodi-0.dtd"
   xmlns="http://www.w3.org/2000/svg"
   xmlns:svg="http://www.w3.org/2000/svg">
  <sodipodi:namedview
     id="namedview1"
     pagecolor="#ffffff"
     bordercolor="#000000"
     borderopacity="0.25"
     inkscape:showpageshadow="2"
     inkscape:pageopacity="0.0"
     inkscape:pagecheckerboard="false"
     inkscape:deskcolor="#d1d1d1"
     inkscape:document-units="px"
     showguides="true"
     inkscape:zoom="8"
     inkscape:cx="47.9375"
     inkscape:cy="51.125"
     inkscape:window-width="1898"
     inkscape:window-height="1058"
     inkscape:window-x="10"
     inkscape:window-y="10"
     inkscape:window-maximized="1"
     inkscape:current-layer="layer1">
    <sodipodi:guide
       position="13.229167,26.458333"
       orientation="-1,0"
       id="guide1"
       inkscape:locked="false"
       inkscape:label=""
       inkscape:color="rgb(0,134,229)" />
    <sodipodi:guide
       position="0,13.229167"
       orientation="0,1"
       id="guide2"
       inkscape:locked="false"
       inkscape:label=""
       inkscape:color="rgb(0,134,229)" />
  </sodipodi:namedview>
  <defs
     id="defs1">
    <inkscape:path-effect
       effect="fillet_chamfer"
       id="path-effect1"
       is_visible="true"
       lpeversion="1"
       nodesatellites_param="F,0,0,1,0,1,0,1 @ F,0,0,1,0,1,0,1 @ F,0,0,1,0,1,0,1 @ F,0,0,1,0,1,0,1 @ F,0,0,1,0,1,0,1 @ F,0,0,1,0,1,0,1 @ F,0,0,1,0,1,0,1 @ F,0,0,1,0,1,0,1 @ F,0,0,1,0,1,0,1 @ F,0,0,1,0,1,0,1 @ F,0,0,1,0,1,0,1 @ F,0,0,1,0,1,0,1 @ F,0,0,1,0,1,0,1 @ F,0,0,1,0,1,0,1 @ F,0,0,1,0,1,0,1 @ F,0,0,1,0,1,0,1 @ F,0,0,1,0,1,0,1 @ F,0,0,1,0,1,0,1 @ F,0,0,1,0,1,0,1 @ F,0,0,1,0,1,0,1 @ F,0,0,1,0,1,0,1 @ F,0,0,1,0,1,0,1 @ F,0,0,1,0,1,0,1 @ F,0,0,1,0,1,0,1 @ F,0,0,1,0,1,0,1 @ F,0,0,1,0,1,0,1 @ F,0,0,1,0,1,0,1 @ F,0,0,1,0,1,0,1 | F,0,0,1,0,1,0,1 @ F,0,0,1,0,1,0,1 @ F,0,0,1,0,1,0,1 @ F,0,0,1,0,1,0,1 @ F,0,0,1,0,1,0,1 | F,0,0,1,0,1,0,1 @ F,0,0,1,0,1,0,1 @ F,0,0,1,0,1,0,1 @ F,0,0,1,0,1,0,1 @ F,0,0,1,0,1,0,1"
       radius="2"
       unit="px"
       method="auto"
       mode="F"
       chamfer_steps="1"
       flexible="false"
       use_knot_distance="true"
       apply_no_radius="true"
       apply_with_radius="true"
       only_selected="false"
       hide_knots="false" />
    <rect
       x="21.114198"
       y="15.673749"
       width="57.771606"
       height="61.276519"
       id="rect1" />
  </defs>
  <g
     inkscape:label="Layer 1"
     inkscape:groupmode="layer"
     id="layer1">
    <ellipse
       style="fill:#9e7223;fill-opacity:1;stroke-width:0.32619"
       id="path3"
       cx="13.229167"
       cy="14.002437"
       rx="7.6427021"
       ry="7.4970231" />
    <path
       sodipodi:type="star"
       style="fill:#9e7223;fill-opacity:1;stroke-width:0.342371;stroke-linecap:round;stroke-linejoin:round"
       id="path1"
       inkscape:flatsided="false"
       sodipodi:sides="3"
       sodipodi:cx="5.0009885"
       sodipodi:cy="2.5904815"
       sodipodi:r1="3.7562661"
       sodipodi:r2="1.8781331"
       sodipodi:arg1="1.5615906"
       sodipodi:arg2="2.6087881"
       inkscape:rounded="0"
       inkscape:randomized="0"
       d="M 5.0355672,6.3465885 3.3831912,3.5444813 1.7308151,0.74237405 l 3.252884,-0.029946 3.2528841,-0.029946 -1.600508,2.83205317 z"
       inkscape:transform-center-y="0.92405366"
       transform="matrix(1.5587946,0,0,1,5.3330004,4.276392)"
       inkscape:transform-center-x="0.026950823" />
    <path
       d="m 51.148436,70.699837 h -2.218747 a 1.0033278,1.0033278 44.904823 0 1 -1.003322,-0.999994 l -0.0194,-5.838549 c -0.0018,-0.552281 -0.450798,-1.016653 -1.001985,-1.051278 -1.472553,-0.0925 -2.912492,-0.258389 -4.319816,-0.49766 -0.544458,-0.09257 -1.423253,-0.265271 -1.962256,-0.385597 -1.362624,-0.304189 -2.701418,-0.67987 -4.016381,-1.127044 -0.522865,-0.177809 -0.94246,-0.781962 -0.94246,-1.334247 v -4.822913 c 0,-0.552285 0.397715,-0.794145 0.896231,-0.556493 1.386863,0.661144 2.78206,1.209783 4.18559,1.645917 0.527382,0.163879 1.392547,0.395969 1.931252,0.517561 1.405798,0.317307 2.82376,0.525126 4.253888,0.623459 0.550956,0.03788 0.998657,-0.39691 0.998657,-0.949195 V 49.82485 A 1.124186,1.124186 53.378673 0 0 47.070314,48.6686 C 42.99232,47.860332 40.630527,46.981926 39.00222,45.848394 38.549189,45.53302 37.87654,44.93545 37.52048,44.513829 36.421581,43.21259 35.797237,41.536451 35.647448,39.485414 c -0.04022,-0.550668 -0.04044,-1.447665 0.0029,-1.998108 0.178302,-2.266733 0.978903,-4.130502 2.401804,-5.591306 0.385194,-0.395455 1.081035,-0.963865 1.540792,-1.269452 1.867759,-1.241444 4.305274,-1.978874 7.312543,-2.21229 0.550572,-0.04273 1.000143,-0.505857 1.002534,-1.058137 l 0.01738,-4.015639 a 1.0043381,1.0043381 135.12401 0 1 1.004329,-0.999991 h 2.218747 a 1,1 45 0 1 1,1 v 3.911455 c 0,0.552285 0.446399,1.034823 0.996085,1.088259 1.075015,0.104505 2.150029,0.238964 3.225043,0.403378 0.54593,0.08349 1.42878,0.233544 1.971497,0.33586 1.090554,0.205596 2.184521,0.445316 3.281899,0.719158 0.535847,0.133717 0.968178,0.697934 0.968178,1.250219 v 4.614579 c 0,0.552285 -0.412268,0.825106 -0.927455,0.626159 -1.103417,-0.426103 -2.206835,-0.785583 -3.310253,-1.078439 -0.53378,-0.14167 -1.405698,-0.346735 -1.946807,-0.457143 -1.083464,-0.22107 -2.170298,-0.378145 -3.260499,-0.471224 -0.550257,-0.04698 -0.997688,0.380447 -0.997688,0.932732 l 0,5.473954 a 1.1158607,1.1158607 54.218937 0 0 0.833333,1.15625 c 4.312716,0.772549 6.815,1.670947 8.492774,2.862264 0.450062,0.319571 1.117065,0.923672 1.472119,1.346134 1.15969,1.379862 1.812063,3.20301 1.957119,5.469445 0.03526,0.551001 0.03586,1.447714 -0.0052,1.998343 -0.174141,2.335677 -0.974794,4.23485 -2.401958,5.697519 -0.385504,0.395095 -1.086221,0.957896 -1.550901,1.255894 -1.904639,1.221441 -4.5046,1.975624 -7.799884,2.26255 -0.550179,0.04791 -0.997405,0.519095 -0.997405,1.07138 l 2e-6,5.89062 a 0.99999975,0.99999975 134.99999 0 1 -1,1 z M 47.929689,40.09048 v -4.796871 c 0,-0.552285 -0.450608,-0.985544 -0.991378,-0.875724 -0.41113,0.08349 -0.78797,0.204948 -1.130521,0.364367 -0.499427,0.232429 -1.220677,0.800424 -1.515754,1.264392 -0.109611,0.172347 -0.198011,0.35429 -0.265202,0.545827 -0.181954,0.518685 -0.180202,1.440193 -0.03692,1.971914 0.06361,0.236049 0.151944,0.456248 0.265006,0.660597 0.266011,0.48079 0.973338,1.069214 1.472736,1.30117 0.35464,0.16472 0.75998,0.298239 1.21602,0.400558 0.538628,0.120849 0.98601,-0.283945 0.98601,-0.83623 z m 4.218747,10.489578 0,5.239579 c 0,0.552285 0.44921,1.002887 0.997919,0.942145 0.576258,-0.06379 1.080987,-0.179607 1.514185,-0.347442 0.513227,-0.198842 1.257204,-0.744306 1.549256,-1.209361 0.160228,-0.255142 0.279479,-0.541016 0.357752,-0.857624 0.132227,-0.534846 0.130123,-1.445506 0.01564,-1.984773 -0.06826,-0.32153 -0.172732,-0.611373 -0.313418,-0.86953 -0.262642,-0.481944 -0.979465,-1.062419 -1.481719,-1.287668 -0.454442,-0.203807 -1.004402,-0.365161 -1.64988,-0.484063 -0.543019,-0.100029 -0.989735,0.306452 -0.989735,0.858737 z"
       id="text1"
       style="font-weight:bold;font-size:53.3333px;-inkscape-font-specification:'sans-serif Bold';text-align:center;text-anchor:middle;white-space:pre;fill:#2eb50c;stroke-width:1.294;stroke-linecap:round;stroke-linejoin:round"
       transform="matrix(0.26458333,0,0,0.26458333,1.8e-7,1.5855505)"
       aria-label="$"
       inkscape:original-d="M 52.148436,70.699837 H 47.929689 L 47.903647,62.8613 q -3.255206,-0.130208 -6.302079,-0.729166 -3.046874,-0.598958 -5.937497,-1.666666 v -6.822913 q 2.99479,1.536458 6.041663,2.369791 3.072915,0.807291 6.223955,0.911458 V 48.82485 L 47.070314,48.6686 q -6.223954,-1.093749 -8.854161,-3.437498 -2.604165,-2.343748 -2.604165,-6.744787 0,-4.661456 3.177081,-7.265621 3.203123,-2.630207 9.114578,-2.864582 l 0.02604,-6.015621 h 4.218747 v 5.911455 q 2.604165,0.208333 5.20833,0.651041 2.604166,0.442708 5.234372,1.145833 v 6.614579 q -2.604165,-1.093749 -5.20833,-1.692707 -2.604165,-0.625 -5.234372,-0.755208 v 7.473954 l 0.833333,0.15625 q 6.614579,1.041666 9.270828,3.489581 2.68229,2.421873 2.68229,7.187495 0,4.791664 -3.177082,7.369788 -3.177081,2.552082 -9.609369,2.916665 z M 47.929689,41.09048 v -6.796871 q -1.848957,0.104166 -2.968748,1.015624 -1.09375,0.885416 -1.09375,2.265624 0,1.536457 1.015625,2.421873 1.015624,0.859375 3.046873,1.09375 z m 4.218747,8.489578 v 7.239579 q 2.265624,-0.02604 3.385415,-0.885416 1.145833,-0.859375 1.145833,-2.578124 0,-1.770832 -1.041667,-2.630206 -1.041666,-0.885417 -3.489581,-1.145833 z"
       inkscape:path-effect="#path-effect1" />
  </g>
</svg>
